# Blender 3.5.1
# www.blender.org
mtllib Sword.mtl
o Plane
v 0.055600 4.316117 0.206791
v 0.055600 0.936450 0.132383
v 0.055600 4.316117 -0.206791
v 0.055600 0.936450 -0.132383
v 0.055600 4.831406 -0.000000
v 0.055600 0.936450 -0.000000
v 0.055600 4.196109 -0.000000
v -0.055600 4.316117 0.206791
v -0.055600 0.936450 0.132383
v -0.055600 4.316117 -0.206791
v -0.055600 0.936450 -0.132383
v -0.055600 4.831406 0.000000
v -0.055600 0.936450 0.000000
v -0.055600 4.196109 0.000000
v 0.000000 4.335807 0.260270
v 0.000000 0.936450 0.179242
v -0.000000 4.335807 -0.260270
v 0.000000 0.936450 -0.179242
v -0.000000 5.099576 0.000000
v 0.000000 -0.371599 -0.125453
v 0.000000 0.815385 -0.125453
v 0.261803 0.936387 -0.000000
v 0.261803 0.857896 -0.000000
v 0.088709 -0.371599 -0.088709
v 0.088709 0.815385 -0.088709
v 0.219635 0.857896 0.219635
v 0.219635 0.936387 0.219635
v 0.125453 -0.371599 -0.000000
v 0.125453 0.815385 -0.000000
v 0.000000 0.936387 -0.268653
v 0.000000 0.857896 -0.268653
v 0.088709 -0.371599 0.088709
v 0.088709 0.815385 0.088709
v 0.219635 0.857896 -0.219635
v 0.219635 0.936387 -0.219635
v 0.000000 -0.371599 0.125453
v 0.000000 0.815385 0.125453
v -0.073975 0.958909 -0.136488
v -0.085889 0.958909 -0.000000
v -0.088709 -0.371599 0.088709
v -0.088709 0.815385 0.088709
v -0.073975 0.958909 0.136488
v 0.000000 0.958909 0.193023
v -0.125453 -0.371599 -0.000000
v -0.125453 0.815385 -0.000000
v -0.261803 0.936387 -0.000000
v -0.261803 0.857896 -0.000000
v 0.073975 0.958909 0.136488
v 0.085889 0.958909 -0.000000
v -0.219635 0.857896 -0.219635
v -0.219635 0.936387 -0.219635
v -0.088709 -0.371599 -0.088709
v -0.088709 0.815385 -0.088709
v 0.000000 0.936387 0.268653
v 0.000000 0.857896 0.268653
v 0.000000 0.958909 -0.193023
v 0.073975 0.958909 -0.136488
v -0.219635 0.857896 0.219635
v -0.219635 0.936387 0.219635
v 0.000000 -0.661195 -0.158393
v 0.112001 -0.661195 -0.112001
v 0.158393 -0.661195 -0.000000
v 0.112001 -0.661195 0.112001
v 0.000000 -0.661195 0.158393
v -0.112001 -0.661195 0.112001
v -0.158393 -0.661195 -0.000000
v -0.112001 -0.661195 -0.112001
v 0.000000 -0.449786 -0.243008
v 0.171833 -0.449786 -0.171833
v 0.243008 -0.449786 -0.000000
v 0.171833 -0.449786 0.171833
v 0.000000 -0.449786 0.243008
v -0.171833 -0.449786 0.171833
v -0.243008 -0.449786 -0.000000
v -0.171833 -0.449786 -0.171833
v -0.000000 -0.602997 -0.243008
v 0.171833 -0.602997 -0.171833
v 0.243008 -0.602997 -0.000000
v 0.171833 -0.602997 0.171833
v -0.000000 -0.602997 0.243008
v -0.171833 -0.602997 0.171833
v -0.243008 -0.602997 -0.000000
v -0.171833 -0.602997 -0.171833
v 0.000000 0.958909 -0.217126
v -0.153532 0.958909 -0.153532
v -0.181198 0.958909 -0.000000
v -0.153532 0.958909 0.153532
v 0.000000 0.958909 0.217126
v 0.153532 0.958909 0.153532
v 0.181198 0.958909 -0.000000
v 0.153532 0.958909 -0.153532
v 0.000000 1.022580 -0.193023
v -0.073975 1.022580 -0.136488
v -0.085889 1.022580 -0.000000
v -0.073975 1.022580 0.136488
v 0.000000 1.022580 0.193023
v 0.073975 1.022580 0.136488
v 0.085889 1.022580 -0.000000
v 0.073975 1.022580 -0.136488
vn 1.0000 -0.0000 -0.0000
vn -1.0000 -0.0000 -0.0000
vn -0.8014 0.2052 0.5619
vn -0.6681 -0.0171 0.7438
vn -0.6682 -0.0171 -0.7438
vn -0.8014 0.2052 -0.5619
vn 0.8014 0.2052 -0.5619
vn 0.6681 -0.0171 -0.7438
vn 0.6682 -0.0171 0.7438
vn 0.8014 0.2052 0.5619
vn 0.9821 -0.0000 -0.1886
vn 0.9239 -0.0000 0.3827
vn 0.2721 0.9609 0.0509
vn -0.0733 -0.9619 0.2634
vn 0.0733 -0.9619 0.2634
vn 0.3827 -0.0000 0.9239
vn 0.0935 0.9462 0.3098
vn 0.2721 0.9609 -0.0509
vn -0.2714 -0.9600 -0.0694
vn -0.3827 -0.0000 0.9239
vn -0.2721 0.9609 -0.0509
vn -0.0733 -0.9619 -0.2634
vn 0.2714 -0.9600 -0.0694
vn -0.9239 -0.0000 0.3827
vn -0.0935 0.9462 -0.3098
vn -0.0935 0.9462 0.3098
vn 0.0935 0.9462 -0.3098
vn -0.9239 -0.0000 -0.3827
vn -0.9821 -0.0000 -0.1886
vn 0.2714 -0.9600 0.0694
vn -0.2178 -0.0000 0.9760
vn -0.3827 -0.0000 -0.9239
vn 0.9821 -0.0000 0.1886
vn -0.2721 0.9609 0.0509
vn 0.2178 -0.0000 -0.9760
vn -0.6072 -0.0000 -0.7945
vn -0.2178 -0.0000 -0.9760
vn -0.2714 -0.9600 0.0694
vn -0.9821 -0.0000 0.1886
vn 0.0733 -0.9619 -0.2634
vn 0.3827 -0.0000 -0.9239
vn 0.2178 -0.0000 0.9760
vn -0.2285 -0.8021 -0.5517
vn 0.9239 -0.0000 -0.3827
vn -0.0000 -1.0000 -0.0000
vn 0.2236 0.8116 -0.5398
vn -0.5517 -0.8021 -0.2285
vn -0.2236 0.8116 -0.5398
vn -0.2236 0.8116 0.5398
vn -0.5517 -0.8021 0.2285
vn 0.5398 0.8116 -0.2236
vn -0.2285 -0.8021 0.5517
vn 0.5398 0.8116 0.2236
vn 0.2285 -0.8021 -0.5517
vn -0.5398 0.8116 0.2236
vn 0.5517 -0.8021 -0.2285
vn 0.5517 -0.8021 0.2285
vn 0.2236 0.8116 0.5398
vn -0.5398 0.8116 -0.2236
vn 0.2285 -0.8021 0.5517
vn -0.0000 1.0000 -0.0000
vn 0.6072 -0.0000 -0.7945
vn 0.9962 -0.0000 0.0870
vn -0.6072 -0.0000 0.7945
vn -0.9962 -0.0000 -0.0870
vn 0.9962 -0.0000 -0.0870
vn 0.6072 -0.0000 0.7945
vn -0.9962 -0.0000 0.0870
vt 0.136965 0.487045
vt 0.064767 0.458264
vt 0.484178 0.491722
vt 0.018767 0.453588
vt 0.136965 0.513038
vt 0.064767 0.432271
vt 0.484178 0.508361
vt 0.018767 0.436948
vt 0.084027 0.500041
vt 0.071780 0.445268
vt 0.484178 0.500041
vt 0.149294 0.500041
vt 0.136965 0.487045
vt 0.064767 0.458264
vt 0.484178 0.491722
vt 0.018767 0.453588
vt 0.136965 0.513038
vt 0.064767 0.432271
vt 0.484178 0.508361
vt 0.018767 0.436948
vt 0.084027 0.500041
vt 0.071780 0.445268
vt 0.484178 0.500041
vt 0.149294 0.500041
vt 0.065035 0.461625
vt 0.018767 0.456533
vt 0.065035 0.428910
vt 0.018767 0.434003
vt 0.075430 0.445268
vt 0.902325 0.982061
vt 0.205802 0.305709
vt 0.217494 0.274010
vt 0.615081 0.982061
vt 0.416648 0.276360
vt 0.287463 0.276360
vt 0.902325 0.979846
vt 0.205802 0.304725
vt 0.217494 0.274699
vt 0.615081 0.979846
vt 0.287463 0.280474
vt 0.416648 0.280474
vt 0.902325 0.974500
vt 0.205802 0.302348
vt 0.217494 0.276360
vt 0.615081 0.974500
vt 0.416648 0.271328
vt 0.287463 0.271328
vt 0.902325 0.969154
vt 0.205802 0.299972
vt 0.615081 0.969154
vt 0.217494 0.278022
vt 0.287463 0.272246
vt 0.416648 0.272246
vt 0.902325 0.966939
vt 0.205802 0.298988
vt 0.217494 0.278710
vt 0.615081 0.966939
vt 0.453717 0.273804
vt 0.460248 0.191994
vt 0.453717 0.276360
vt 0.460248 0.183768
vt 0.902325 0.969154
vt 0.205802 0.299972
vt 0.615081 0.969154
vt 0.217494 0.278022
vt 0.453717 0.278917
vt 0.460248 0.175543
vt 0.453717 0.279976
vt 0.460248 0.172135
vt 0.902325 0.974500
vt 0.205802 0.302348
vt 0.615081 0.974500
vt 0.217494 0.276360
vt 0.416648 0.276360
vt 0.287463 0.276360
vt 0.453717 0.278917
vt 0.460248 0.175543
vt 0.453717 0.276360
vt 0.460248 0.183768
vt 0.287463 0.272246
vt 0.416648 0.272246
vt 0.902325 0.979846
vt 0.205802 0.304725
vt 0.217494 0.274699
vt 0.615081 0.979846
vt 0.416648 0.281393
vt 0.287463 0.281393
vt 0.453717 0.272745
vt 0.460248 0.195402
vt 0.453717 0.273804
vt 0.460248 0.191994
vt 0.287463 0.280474
vt 0.416648 0.280474
vt 0.457109 0.306591
vt 0.457109 0.305349
vt 0.457109 0.302348
vt 0.457109 0.299348
vt 0.457109 0.298105
vt 0.457109 0.299348
vt 0.457109 0.302348
vt 0.457109 0.305349
vt 0.273652 0.308858
vt 0.273652 0.306951
vt 0.273652 0.302348
vt 0.273652 0.297745
vt 0.273652 0.295838
vt 0.273652 0.297745
vt 0.273652 0.302348
vt 0.273652 0.306951
vt 0.406606 0.308858
vt 0.406606 0.306951
vt 0.406606 0.302348
vt 0.406606 0.297745
vt 0.406606 0.295838
vt 0.406606 0.297745
vt 0.406606 0.302348
vt 0.406606 0.306951
vt 0.453717 0.272293
vt 0.453717 0.273484
vt 0.453717 0.276360
vt 0.453717 0.279236
vt 0.453717 0.280427
vt 0.453717 0.279236
vt 0.453717 0.276360
vt 0.453717 0.273484
vt 0.363010 0.195402
vt 0.363010 0.191994
vt 0.363010 0.183768
vt 0.363010 0.175543
vt 0.363010 0.172135
vt 0.363010 0.175543
vt 0.363010 0.183768
vt 0.363010 0.191994
s 0
usemtl Material
f 5/9/1 7/12/1 3/5/1
f 1/1/1 2/3/1 6/11/1 7/12/1
f 3/5/1 7/12/1 6/11/1 4/7/1
f 7/12/1 5/9/1 1/1/1
f 12/21/2 10/17/2 14/24/2
f 8/13/2 14/24/2 13/23/2 9/15/2
f 10/17/2 11/19/2 13/23/2 14/24/2
f 14/24/2 8/13/2 12/21/2
f 15/25/3 19/29/3 12/22/3 8/14/3
f 16/26/4 15/25/4 8/14/4 9/16/4
f 17/27/5 18/28/5 11/20/5 10/18/5
f 19/29/6 17/27/6 10/18/6 12/22/6
f 5/10/7 3/6/7 17/27/7 19/29/7
f 3/6/8 4/8/8 18/28/8 17/27/8
f 2/4/9 1/2/9 15/25/9 16/26/9
f 1/2/10 5/10/10 19/29/10 15/25/10
f 23/35/11 34/52/11 35/53/11 22/34/11
f 29/45/12 33/50/12 32/48/12 28/42/12
f 90/124/13 89/123/13 27/41/13 22/34/13
f 41/65/14 37/56/14 55/87/14 58/92/14
f 37/56/15 33/51/15 26/40/15 55/87/15
f 33/50/16 37/57/16 36/54/16 32/48/16
f 89/123/17 88/122/17 54/86/17 27/41/17
f 91/125/18 90/124/18 22/34/18 35/53/18
f 53/84/19 45/73/19 47/75/19 50/80/19
f 37/57/20 41/64/20 40/62/20 36/54/20
f 86/120/21 85/119/21 51/81/21 46/74/21
f 21/32/22 53/84/22 50/80/22 31/47/22
f 29/44/23 25/38/23 34/52/23 23/35/23
f 41/64/24 45/72/24 44/70/24 40/62/24
f 85/119/25 84/118/25 30/46/25 51/81/25
f 88/122/26 87/121/26 59/93/26 54/86/26
f 84/118/27 91/125/27 35/53/27 30/46/27
f 45/72/28 53/85/28 52/82/28 44/70/28
f 50/80/29 47/75/29 46/74/29 51/81/29
f 33/51/30 29/44/30 23/35/30 26/40/30
f 58/92/31 55/87/31 54/86/31 59/93/31
f 53/85/32 21/33/32 20/30/32 52/82/32
f 26/40/33 23/35/33 22/34/33 27/41/33
f 87/121/34 86/120/34 46/74/34 59/93/34
f 34/52/35 31/47/35 30/46/35 35/53/35
f 56/89/36 38/59/36 93/127/36 92/126/36
f 31/47/37 50/80/37 51/81/37 30/46/37
f 45/73/38 41/65/38 58/92/38 47/75/38
f 47/75/39 58/92/39 59/93/39 46/74/39
f 25/38/40 21/32/40 31/47/40 34/52/40
f 21/33/41 25/39/41 24/36/41 20/30/41
f 55/87/42 26/40/42 27/41/42 54/86/42
f 60/94/43 67/101/43 83/117/43 76/110/43
f 25/39/44 29/45/44 28/42/44 24/36/44
f 60/94/45 61/95/45 62/96/45 63/97/45 64/98/45 65/99/45 66/100/45 67/101/45
f 20/31/46 24/37/46 69/103/46 68/102/46
f 67/101/47 66/100/47 82/116/47 83/117/47
f 52/83/48 20/31/48 68/102/48 75/109/48
f 36/55/49 40/63/49 73/107/49 72/106/49
f 66/100/50 65/99/50 81/115/50 82/116/50
f 24/37/51 28/43/51 70/104/51 69/103/51
f 65/99/52 64/98/52 80/114/52 81/115/52
f 69/103/44 70/104/44 78/112/44 77/111/44
f 71/105/16 72/106/16 80/114/16 79/113/16
f 73/107/24 74/108/24 82/116/24 81/115/24
f 75/109/32 68/102/32 76/110/32 83/117/32
f 68/102/41 69/103/41 77/111/41 76/110/41
f 70/104/12 71/105/12 79/113/12 78/112/12
f 72/106/20 73/107/20 81/115/20 80/114/20
f 74/108/28 75/109/28 83/117/28 82/116/28
f 28/43/53 32/49/53 71/105/53 70/104/53
f 61/95/54 60/94/54 76/110/54 77/111/54
f 40/63/55 44/71/55 74/108/55 73/107/55
f 62/96/56 61/95/56 77/111/56 78/112/56
f 63/97/57 62/96/57 78/112/57 79/113/57
f 32/49/58 36/55/58 72/106/58 71/105/58
f 44/71/59 52/83/59 75/109/59 74/108/59
f 64/98/60 63/97/60 79/113/60 80/114/60
f 38/58/61 56/88/61 84/118/61 85/119/61
f 39/60/61 38/58/61 85/119/61 86/120/61
f 42/66/61 39/60/61 86/120/61 87/121/61
f 43/68/61 42/66/61 87/121/61 88/122/61
f 48/76/61 43/68/61 88/122/61 89/123/61
f 49/78/61 48/76/61 89/123/61 90/124/61
f 57/90/61 49/78/61 90/124/61 91/125/61
f 56/88/61 57/90/61 91/125/61 84/118/61
f 92/126/61 93/127/61 94/128/61 95/129/61 96/130/61 97/131/61 98/132/61 99/133/61
f 57/91/62 56/89/62 92/126/62 99/133/62
f 48/77/63 49/79/63 98/132/63 97/131/63
f 42/67/64 43/69/64 96/130/64 95/129/64
f 38/59/65 39/61/65 94/128/65 93/127/65
f 49/79/66 57/91/66 99/133/66 98/132/66
f 43/69/67 48/77/67 97/131/67 96/130/67
f 39/61/68 42/67/68 95/129/68 94/128/68
